<?xml version="1.0" encoding="UTF-8" standalone="no"?>
<!-- Created with Inkscape (http://www.inkscape.org/) -->

<svg
   xmlns:dc="http://purl.org/dc/elements/1.1/"
   xmlns:cc="http://creativecommons.org/ns#"
   xmlns:rdf="http://www.w3.org/1999/02/22-rdf-syntax-ns#"
   xmlns:svg="http://www.w3.org/2000/svg"
   xmlns="http://www.w3.org/2000/svg"
   xmlns:sodipodi="http://sodipodi.sourceforge.net/DTD/sodipodi-0.dtd"
   xmlns:inkscape="http://www.inkscape.org/namespaces/inkscape"
   width="60"
   height="60"
   viewBox="0 0 15.875 15.875"
   version="1.1"
   id="svg8"
   inkscape:version="0.92.2 (5c3e80d, 2017-08-06)"
   sodipodi:docname="logo_azapp_wix.svg">
  <defs
     id="defs2">
    <clipPath
       clipPathUnits="userSpaceOnUse"
       id="clipPath1404">
      <path
         d="M 0,612.283 H 437.953 V 0 H 0 Z"
         id="path1402"
         inkscape:connector-curvature="0" />
    </clipPath>
  </defs>
  <sodipodi:namedview
     id="base"
     pagecolor="#ffffff"
     bordercolor="#666666"
     borderopacity="1.0"
     inkscape:pageopacity="0.0"
     inkscape:pageshadow="2"
     inkscape:zoom="11.2"
     inkscape:cx="42.172607"
     inkscape:cy="23.200142"
     inkscape:document-units="mm"
     inkscape:current-layer="layer1"
     showgrid="false"
     inkscape:window-width="1858"
     inkscape:window-height="1057"
     inkscape:window-x="1420"
     inkscape:window-y="-8"
     inkscape:window-maximized="1"
     units="px" />
  <metadata
     id="metadata5">
    <rdf:RDF>
      <cc:Work
         rdf:about="">
        <dc:format>image/svg+xml</dc:format>
        <dc:type
           rdf:resource="http://purl.org/dc/dcmitype/StillImage" />
        <dc:title></dc:title>
      </cc:Work>
    </rdf:RDF>
  </metadata>
  <g
     inkscape:label="Layer 1"
     inkscape:groupmode="layer"
     id="layer1"
     transform="translate(0,-281.125)">
    <ellipse
       style="opacity:1;fill:#f0423d;fill-opacity:1;stroke:#f0423d;stroke-width:0;stroke-linecap:square;stroke-linejoin:miter;stroke-miterlimit:4;stroke-dasharray:none;stroke-dashoffset:0;stroke-opacity:1;paint-order:markers fill stroke"
       id="path2406"
       cx="7.9355836"
       cy="289.08228"
       rx="7.9157743"
       ry="7.9320836" />
    <g
       id="g1450"
       transform="matrix(0.12207418,0,0,-0.12207418,4.362463,292.61441)">
      <path
         d="m 0,0 c 0,-0.317 -0.012,-0.663 -0.034,-1.035 -0.024,-0.375 -0.108,-0.72 -0.255,-1.037 -0.147,-0.316 -0.38,-0.583 -0.696,-0.798 -0.318,-0.214 -0.77,-0.323 -1.358,-0.323 -0.725,0 -1.252,0.182 -1.579,0.544 -0.329,0.361 -0.583,0.871 -0.764,1.529 -1.269,-1.518 -2.819,-2.276 -4.654,-2.276 -1.154,0 -2.224,0.232 -3.209,0.696 -0.984,0.464 -1.839,1.115 -2.563,1.953 -0.725,0.837 -1.291,1.828 -1.698,2.971 -0.408,1.143 -0.611,2.406 -0.611,3.786 0,1.337 0.208,2.582 0.627,3.736 0.419,1.155 0.997,2.157 1.733,3.006 0.735,0.848 1.596,1.516 2.58,2.003 0.986,0.487 2.032,0.731 3.141,0.731 0.906,0 1.772,-0.182 2.598,-0.543 0.827,-0.363 1.512,-0.929 2.056,-1.699 0.067,0.589 0.328,1.075 0.78,1.461 0.453,0.384 0.973,0.577 1.563,0.577 0.588,0 1.04,-0.108 1.358,-0.323 0.316,-0.215 0.549,-0.481 0.696,-0.798 0.147,-0.317 0.231,-0.662 0.255,-1.036 C -0.012,12.752 0,12.407 0,12.089 Z m -12.531,6.01 c 0,-0.589 0.079,-1.176 0.237,-1.766 0.159,-0.588 0.396,-1.115 0.713,-1.578 0.318,-0.464 0.719,-0.844 1.205,-1.138 0.488,-0.294 1.059,-0.441 1.716,-0.441 0.634,0 1.189,0.147 1.664,0.441 0.476,0.294 0.865,0.674 1.171,1.138 0.306,0.463 0.539,0.99 0.697,1.578 0.158,0.59 0.238,1.177 0.238,1.766 0,0.589 -0.074,1.178 -0.221,1.767 -0.148,0.587 -0.379,1.121 -0.695,1.596 -0.319,0.475 -0.709,0.866 -1.173,1.171 -0.464,0.305 -1.024,0.458 -1.681,0.458 -0.68,0 -1.263,-0.153 -1.749,-0.458 -0.486,-0.305 -0.889,-0.696 -1.205,-1.171 -0.318,-0.475 -0.55,-1.009 -0.697,-1.596 -0.146,-0.589 -0.22,-1.178 -0.22,-1.767"
         style="fill:#ffffff;fill-opacity:1;fill-rule:nonzero;stroke:none"
         id="path1452"
         inkscape:connector-curvature="0" />
    </g>
    <g
       id="g1454"
       transform="matrix(0.12207418,0,0,-0.12207418,5.5688364,291.29598)">
      <path
         d="m 0,0 h -5.672 c -0.611,0 -1.132,0.186 -1.562,0.559 -0.43,0.375 -0.645,0.901 -0.645,1.579 0,0.68 0.215,1.206 0.645,1.581 0.43,0.373 0.951,0.559 1.562,0.559 H 5.433 c 0.114,0 0.26,-0.016 0.441,-0.051 C 6.056,4.193 6.231,4.12 6.401,4.006 6.571,3.894 6.717,3.74 6.843,3.548 6.967,3.355 7.029,3.09 7.029,2.75 7.029,2.432 6.989,2.173 6.91,1.969 6.831,1.766 6.701,1.539 6.52,1.289 L -1.19,-9.51 h 6.453 c 0.611,0 1.132,-0.187 1.563,-0.56 0.429,-0.374 0.644,-0.9 0.644,-1.579 0,-0.679 -0.215,-1.205 -0.644,-1.578 -0.431,-0.375 -0.952,-0.561 -1.563,-0.561 H -6.113 c -0.543,0 -1.014,0.135 -1.409,0.407 -0.397,0.272 -0.594,0.69 -0.594,1.256 0,0.272 0.05,0.527 0.152,0.765 0.103,0.237 0.198,0.424 0.289,0.56 z"
         style="fill:#ffffff;fill-opacity:1;fill-rule:nonzero;stroke:none"
         id="path1456"
         inkscape:connector-curvature="0" />
    </g>
    <g
       id="g1458"
       transform="matrix(0.12207418,0,0,-0.12207418,8.735978,292.61441)">
      <path
         d="m 0,0 c 0,-0.317 -0.012,-0.663 -0.033,-1.035 -0.024,-0.375 -0.109,-0.72 -0.255,-1.037 -0.149,-0.316 -0.38,-0.583 -0.697,-0.798 -0.318,-0.214 -0.77,-0.323 -1.359,-0.323 -0.724,0 -1.251,0.182 -1.579,0.544 -0.327,0.361 -0.583,0.871 -0.764,1.529 -1.267,-1.518 -2.818,-2.276 -4.651,-2.276 -1.155,0 -2.225,0.232 -3.209,0.696 -0.986,0.464 -1.841,1.115 -2.565,1.953 -0.725,0.837 -1.29,1.828 -1.699,2.971 -0.406,1.143 -0.61,2.406 -0.61,3.786 0,1.337 0.21,2.582 0.628,3.736 0.418,1.155 0.997,2.157 1.731,3.006 0.737,0.848 1.597,1.516 2.582,2.003 0.984,0.487 2.032,0.731 3.142,0.731 0.904,0 1.77,-0.182 2.597,-0.543 0.826,-0.363 1.511,-0.929 2.054,-1.699 0.07,0.589 0.328,1.075 0.782,1.461 0.452,0.384 0.973,0.577 1.561,0.577 0.589,0 1.041,-0.108 1.359,-0.323 0.317,-0.215 0.548,-0.481 0.697,-0.798 0.146,-0.317 0.231,-0.662 0.255,-1.036 C -0.012,12.752 0,12.407 0,12.089 Z m -12.531,6.01 c 0,-0.589 0.078,-1.176 0.238,-1.766 0.158,-0.588 0.396,-1.115 0.713,-1.578 0.317,-0.464 0.719,-0.844 1.205,-1.138 0.488,-0.294 1.059,-0.441 1.716,-0.441 0.633,0 1.188,0.147 1.663,0.441 0.475,0.294 0.866,0.674 1.172,1.138 0.305,0.463 0.538,0.99 0.697,1.578 0.157,0.59 0.236,1.177 0.236,1.766 0,0.589 -0.073,1.178 -0.22,1.767 -0.148,0.587 -0.379,1.121 -0.698,1.596 -0.315,0.475 -0.707,0.866 -1.17,1.171 -0.464,0.305 -1.023,0.458 -1.68,0.458 -0.679,0 -1.263,-0.153 -1.75,-0.458 -0.487,-0.305 -0.888,-0.696 -1.205,-1.171 -0.317,-0.475 -0.549,-1.009 -0.696,-1.596 -0.148,-0.589 -0.221,-1.178 -0.221,-1.767"
         style="fill:#ffffff;fill-opacity:1;fill-rule:nonzero;stroke:none"
         id="path1460"
         inkscape:connector-curvature="0" />
    </g>
    <g
       id="g1462"
       transform="matrix(0.12207418,0,0,-0.12207418,9.075845,291.08049)">
      <path
         d="m 0,0 c 0,0.815 0.227,1.471 0.68,1.969 0.453,0.498 1.041,0.748 1.765,0.748 0.679,0 1.217,-0.176 1.614,-0.527 0.394,-0.351 0.673,-0.855 0.832,-1.511 0.452,0.747 1.108,1.307 1.97,1.681 0.86,0.373 1.753,0.56 2.681,0.56 1.314,0 2.464,-0.283 3.447,-0.85 0.987,-0.565 1.805,-1.3 2.463,-2.205 0.657,-0.907 1.149,-1.937 1.478,-3.092 0.328,-1.155 0.493,-2.332 0.493,-3.531 0,-1.155 -0.188,-2.282 -0.562,-3.379 -0.374,-1.099 -0.912,-2.084 -1.613,-2.955 -0.701,-0.872 -1.551,-1.568 -2.547,-2.088 -0.997,-0.521 -2.105,-0.781 -3.328,-0.781 -0.769,0 -1.545,0.141 -2.325,0.425 -0.782,0.281 -1.5,0.706 -2.157,1.273 v -5.978 c 0,-0.814 -0.228,-1.471 -0.681,-1.969 -0.452,-0.498 -1.041,-0.748 -1.765,-0.748 -0.724,0 -1.312,0.25 -1.765,0.748 C 0.227,-21.712 0,-21.055 0,-20.241 Z m 4.891,-6.385 c 0,-0.589 0.073,-1.188 0.22,-1.799 0.148,-0.612 0.379,-1.162 0.696,-1.648 0.317,-0.487 0.714,-0.883 1.188,-1.188 0.477,-0.306 1.054,-0.459 1.733,-0.459 0.633,0 1.188,0.148 1.664,0.442 0.475,0.293 0.872,0.679 1.189,1.154 0.316,0.476 0.554,1.008 0.712,1.597 0.159,0.588 0.238,1.165 0.238,1.731 0,0.589 -0.079,1.177 -0.238,1.767 -0.158,0.587 -0.396,1.12 -0.712,1.596 -0.317,0.474 -0.714,0.865 -1.189,1.171 -0.476,0.305 -1.031,0.458 -1.664,0.458 -0.657,0 -1.223,-0.141 -1.699,-0.425 C 6.556,-2.27 6.158,-2.638 5.842,-3.091 5.523,-3.544 5.286,-4.058 5.127,-4.636 4.97,-5.213 4.891,-5.796 4.891,-6.385"
         style="fill:#ffffff;fill-opacity:1;fill-rule:nonzero;stroke:none"
         id="path1464"
         inkscape:connector-curvature="0" />
    </g>
    <g
       id="g1466"
       transform="matrix(0.12207418,0,0,-0.12207418,11.455461,291.08049)">
      <path
         d="M 0,0 C 0,0.815 0.226,1.471 0.679,1.969 1.132,2.467 1.72,2.717 2.445,2.717 3.124,2.717 3.662,2.541 4.058,2.19 4.454,1.839 4.732,1.335 4.891,0.679 5.342,1.426 5.999,1.986 6.86,2.36 c 0.859,0.373 1.754,0.56 2.683,0.56 1.313,0 2.462,-0.283 3.446,-0.85 0.986,-0.565 1.806,-1.3 2.463,-2.205 0.657,-0.907 1.148,-1.937 1.477,-3.092 0.328,-1.155 0.493,-2.332 0.493,-3.531 0,-1.155 -0.187,-2.282 -0.561,-3.379 -0.374,-1.099 -0.912,-2.084 -1.613,-2.955 -0.703,-0.872 -1.552,-1.568 -2.547,-2.088 -0.997,-0.521 -2.107,-0.781 -3.328,-0.781 -0.771,0 -1.545,0.141 -2.326,0.425 -0.782,0.281 -1.5,0.706 -2.156,1.273 v -5.978 c 0,-0.814 -0.228,-1.471 -0.681,-1.969 -0.453,-0.498 -1.04,-0.748 -1.765,-0.748 -0.725,0 -1.313,0.25 -1.766,0.748 C 0.226,-21.712 0,-21.055 0,-20.241 Z m 4.891,-6.385 c 0,-0.589 0.071,-1.188 0.22,-1.799 0.147,-0.612 0.379,-1.162 0.696,-1.648 0.317,-0.487 0.714,-0.883 1.188,-1.188 0.476,-0.306 1.053,-0.459 1.732,-0.459 0.635,0 1.189,0.148 1.665,0.442 0.475,0.293 0.871,0.679 1.189,1.154 0.316,0.476 0.553,1.008 0.712,1.597 0.159,0.588 0.238,1.165 0.238,1.731 0,0.589 -0.079,1.177 -0.238,1.767 -0.159,0.587 -0.396,1.12 -0.712,1.596 -0.318,0.474 -0.714,0.865 -1.189,1.171 -0.476,0.305 -1.03,0.458 -1.665,0.458 -0.657,0 -1.222,-0.141 -1.698,-0.425 C 6.554,-2.27 6.158,-2.638 5.84,-3.091 5.524,-3.544 5.285,-4.058 5.127,-4.636 4.969,-5.213 4.891,-5.796 4.891,-6.385"
         style="fill:#ffffff;fill-opacity:1;fill-rule:nonzero;stroke:none"
         id="path1468"
         inkscape:connector-curvature="0" />
    </g>
    <g
       id="g1522"
       transform="matrix(0.12207418,0,0,-0.12207418,7.6763495,288.37)">
      <path
         d="m 0,0 c 0,-1.064 0.864,-1.928 1.928,-1.928 1.066,0 1.93,0.864 1.93,1.928 0,1.067 -0.864,1.93 -1.93,1.93 C 0.864,1.93 0,1.067 0,0"
         style="fill:#ffffff;fill-opacity:1;fill-rule:nonzero;stroke:none"
         id="path1524"
         inkscape:connector-curvature="0" />
    </g>
    <g
       id="g1526"
       transform="matrix(0.12207418,0,0,-0.12207418,9.2867401,286.64684)">
      <path
         d="m 0,0 c -0.437,0.005 -0.834,-0.182 -1.133,-0.476 -0.351,-0.352 -0.566,-0.866 -0.566,-1.445 0,-0.149 0.027,-0.31 0.07,-0.484 0.074,-0.309 0.197,-0.662 0.345,-1.023 0.433,-1.081 1.056,-2.245 1.059,-2.25 0.046,-0.085 0.133,-0.135 0.225,-0.135 0.095,0 0.18,0.05 0.225,0.135 0.003,0 0.366,0.68 0.731,1.48 0.182,0.401 0.366,0.83 0.505,1.227 0.068,0.201 0.128,0.39 0.169,0.566 0.042,0.174 0.069,0.335 0.071,0.484 0,0.579 -0.214,1.093 -0.567,1.445 C 0.838,-0.182 0.437,0.005 0,0"
         style="fill:#ffffff;fill-opacity:1;fill-rule:nonzero;stroke:none"
         id="path1528"
         inkscape:connector-curvature="0" />
    </g>
    <g
       id="g1530"
       transform="matrix(0.12207418,0,0,-0.12207418,10.259036,285.93138)">
      <path
         d="m 0,0 -2.391,1.324 c -0.286,0.085 -0.52,-0.075 -0.52,-0.365 v -3.998 c 0,-0.288 0.234,-0.59 0.52,-0.675 L 0,-4.523 c 0.29,-0.088 0.521,0.078 0.521,0.363 v 3.486 C 0.521,-0.387 0.335,-0.178 0,0"
         style="fill:#ffffff;fill-opacity:1;fill-rule:nonzero;stroke:none"
         id="path1532"
         inkscape:connector-curvature="0" />
    </g>
    <g
       id="g1534"
       transform="matrix(0.12207418,0,0,-0.12207418,8.5966182,285.76978)">
      <path
         d="m 0,0 -2.394,-1.324 c -0.335,-0.178 -0.521,-0.387 -0.521,-0.674 v -3.485 c 0,-0.286 0.236,-0.451 0.521,-0.364 L 0,-5.038 c 0.286,0.085 0.52,0.387 0.52,0.676 v 3.997 C 0.52,-0.075 0.286,0.085 0,0"
         style="fill:#ffffff;fill-opacity:1;fill-rule:nonzero;stroke:none"
         id="path1536"
         inkscape:connector-curvature="0" />
    </g>
    <g
       id="g1538"
       transform="matrix(0.12207418,0,0,-0.12207418,9.6682223,284.96659)">
      <path
         d="m 0,0 c -0.828,1.323 -1.938,2.713 -2.259,3.107 l -0.01,0.008 -0.004,0.011 c -0.224,0.267 -0.589,0.432 -0.983,0.437 h -0.022 c -0.399,0 -0.768,-0.166 -0.982,-0.444 -0.031,-0.037 -0.738,-0.941 -1.449,-2.01 -0.432,-0.664 -0.765,-1.22 -1.013,-1.71 -0.157,-0.327 -0.275,-0.603 -0.359,-0.85 -0.113,-0.338 -0.161,-0.621 -0.157,-0.89 0.003,-0.09 0.01,-0.179 0.022,-0.266 -0.003,-0.046 -0.006,-0.09 -0.006,-0.138 v -8.424 c 0,-0.875 0.703,-1.581 1.579,-1.581 h 5.039 c 0.871,0 1.578,0.706 1.578,1.581 v 8.412 c 0.012,0.121 0.017,0.244 0.015,0.369 C 0.977,-2.117 0.916,-1.839 0.787,-1.501 0.625,-1.085 0.366,-0.593 0,0 m -3.125,-4.814 c -1.132,0 -2.05,0.916 -2.05,2.05 0,1.136 0.918,2.056 2.05,2.056 1.134,0 2.051,-0.92 2.051,-2.056 0,-1.134 -0.917,-2.05 -2.051,-2.05"
         style="fill:#ffffff;fill-opacity:1;fill-rule:nonzero;stroke:none"
         id="path1540"
         inkscape:connector-curvature="0" />
    </g>
    <g
       id="g1542"
       transform="matrix(0.12207418,0,0,-0.12207418,9.2817353,284.3381)">
      <path
         d="m 0,0 c 0.863,0 1.565,0.703 1.565,1.568 v 3.574 c 0,2.77 -2.252,5.024 -5.02,5.024 h -15.529 c -2.772,0 -5.027,-2.254 -5.027,-5.024 v -40.379 c 0,-2.769 2.255,-5.022 5.027,-5.022 h 15.525 c 2.771,0 5.024,2.253 5.024,5.022 v 7.034 c 0,0.865 -0.702,1.568 -1.565,1.568 -0.865,0 -1.568,-0.703 -1.568,-1.568 v -7.034 c 0,-1.042 -0.846,-1.89 -1.887,-1.89 h -15.529 c -1.043,0 -1.891,0.848 -1.891,1.89 V 5.142 c 0,1.042 0.848,1.889 1.891,1.889 h 15.529 c 1.041,0 1.887,-0.847 1.887,-1.889 V 1.568 C -1.568,0.703 -0.865,0 0,0"
         style="fill:#ffffff;fill-opacity:1;fill-rule:nonzero;stroke:none"
         id="path1544"
         inkscape:connector-curvature="0" />
    </g>
  </g>
</svg>
